<svg xmlns="http://www.w3.org/2000/svg" width="64" height="64" fill="none" id="personal-loan"><path fill="#2B3151" d="M30.986 16.428a7.095 7.095 0 1 1-14.19 0 7.095 7.095 0 0 1 14.19 0Z"></path><path fill="#2B3151" fill-rule="evenodd" d="M23.891 10.667a5.762 5.762 0 1 0 0 11.523 5.762 5.762 0 0 0 0-11.523zm-8.428 5.761a8.428 8.428 0 1 1 16.857 0 8.428 8.428 0 0 1-16.857 0zM41.89 29.334c-6.627 0-12 5.372-12 12 0 6.627 5.373 12 12 12 6.628 0 12-5.373 12-12 0-6.628-5.372-12-12-12zm-14.666 12c0-8.1 6.566-14.667 14.666-14.667 8.1 0 14.667 6.566 14.667 14.667 0 8.1-6.566 14.666-14.667 14.666-8.1 0-14.666-6.566-14.666-14.666z" clip-rule="evenodd"></path><path fill="#959AB4" fill-rule="evenodd" d="M29.509 27.365c.73-.648.662-1.848-.247-2.203a14.717 14.717 0 0 0-5.37-1.005c-6.77 0-12.416 4.521-13.718 10.53-.312 1.44.911 2.647 2.384 2.647H22.58c.627 0 1.164-.439 1.333-1.042a18.67 18.67 0 0 1 5.596-8.927Z" clip-rule="evenodd"></path><path fill="#D0D2E0" d="M55.224 41.333c0 7.364-5.969 13.334-13.333 13.334s-13.333-5.97-13.333-13.334S34.528 28 41.89 28c7.364 0 13.334 5.97 13.334 13.333Z"></path><path fill="#D0D2E0" fill-rule="evenodd" d="M41.891 29.334c-6.627 0-12 5.372-12 12 0 6.627 5.373 12 12 12 6.628 0 12-5.373 12-12 0-6.628-5.372-12-12-12Zm-14.666 12c0-8.1 6.566-14.667 14.666-14.667 8.1 0 14.667 6.566 14.667 14.667 0 8.1-6.566 14.666-14.667 14.666-8.1 0-14.666-6.566-14.666-14.666Z" clip-rule="evenodd"></path><path fill="#2B3151" fill-rule="evenodd" d="M35.295 42.456c0-.736.597-1.333 1.333-1.333h2.807a1.333 1.333 0 0 1 0 2.667h-2.807a1.333 1.333 0 0 1-1.333-1.334zm0-8.42c0-.737.597-1.334 1.333-1.334h10.526a1.333 1.333 0 0 1 0 2.667H36.628a1.333 1.333 0 0 1-1.333-1.334zm0 4.21c0-.736.597-1.333 1.333-1.333h10.526a1.333 1.333 0 1 1 0 2.667H36.628a1.333 1.333 0 0 1-1.333-1.334z" clip-rule="evenodd"></path><path fill="#2B3151" fill-rule="evenodd" d="M35.685 41.514c.52-.52 1.365-.52 1.886 0l7.443 7.443a1.333 1.333 0 1 1-1.886 1.886L35.685 43.4a1.333 1.333 0 0 1 0-1.886Z" clip-rule="evenodd"></path><path fill="#2B3151" fill-rule="evenodd" d="M42.312 38.246c0-1.49-1.343-2.877-3.228-2.877v-2.667c3.153 0 5.895 2.384 5.895 5.544 0 3.16-2.742 5.544-5.895 5.544v-2.667c1.885 0 3.228-1.386 3.228-2.877Z" clip-rule="evenodd"></path></svg>