<svg xmlns="http://www.w3.org/2000/svg" viewBox="0 0 1013.31 691.48" id="building"><path fill="#f5f5fc" d="M695 756.43s-68.45 105.64 94.5 118.46 206.66-3.21 234.48-6.41 108.76-62.5 245.87 11.22c92.85 49.93 191.3-8 237-43.28s73.52-73.73 51.66-80.14-863.51.15-863.51.15Z" transform="translate(-634.23 -207.65)"></path><path fill="#f8f8ff" d="M692.18 759.58s-97.21-143.39-39.8-199c58.09-56.27-18.41-126.7 7.26-208.75 21.72-69.44 154.3-183.34 275.92-130.7 167.93 72.69 167.14 88.68 270.47 70.79s223.16-115.27 281.36 7.26c34.49 72.61 129.31 88.54 152.48 156.11s-11.73 152.14-30.87 170.63c-67.86 65.61-44.69 136.45-44.69 136.45Z" transform="translate(-634.23 -207.65)"></path><circle cx="521.28" cy="193.59" r="28.94" fill="#fff"></circle><circle cx="552.75" cy="197.11" r="21.38" fill="#fff"></circle><circle cx="760.04" cy="182.69" r="26.49" fill="#fff"></circle><circle cx="730.43" cy="185.47" r="19.57" fill="#fff"></circle><circle cx="794.84" cy="187.97" r="19.57" fill="#fff"></circle><circle cx="118.61" cy="197.89" r="26.49" fill="#fff"></circle><circle cx="89.8" cy="194.67" r="19.57" fill="#fff"></circle><g data-name="build 1"><g data-name="Layer 2"><path fill="#e9edfa" d="m126.77 147.35 1 401.82h319l-1-400.82-319-1z"></path><path fill="#bac6f2" d="m112.77 110.35 343 1 1 37h-344v-38zM112.77 222.35h343v11h-343z"></path><path fill="#bac6f2" d="M127.77 232.35h317v11h-317zM126.77 145.35h317v11h-317zM114.77 548.35h343v11h-343zM158.77 169.35l-11 12v17l10 10 257 1 10-9v-19l-12-12h-254z"></path></g><path fill="#b1c1f2" d="M126.77 268.35h20v13h-19l-1-13zM126.77 398.35h12v13h-11l-1-13zM234.77 379.35h32v12h-32zM215.77 399.35h32v12h-32zM200.32 325.67h32v12h-32zM273.77 400.35h32v12h-32zM217.1 256.57h32v12h-32zM396.77 393.35h32v12h-32zM401.77 246.35h32v12h-32z"></path><rect width="64.93" height="118.16" x="363.87" y="433.34" fill="#bac6f2" rx="3.43" ry="3.43"></rect><rect width="52.62" height="18.94" x="370.09" y="446.65" fill="#fff" rx="3.43" ry="3.43"></rect><path fill="#bac6f2" d="M779.55 516.07h6.53L859 516s4-22-12-35-32.57-13-44.57-7-23.33 15-22.88 42.07Z" transform="translate(-634.23 -207.65)"></path><path fill="#bac6f2" d="m151.84 308.42-.55 53.31h67.86v-54.66l-68.4-1.1 1.09 2.45"></path><path fill="#bac6f2" d="m151.29 361.73-4.46-.32v9.02h76.71l-.38-9.02-71.87.32z"></path><path fill="#fff" d="M159.74 311.4h23.69v21.81h-23.69zM188.25 311.15h22.64v21.81h-22.64zM188.13 338.6h23.08v21.81h-23.08zM159.96 338.59h23.69v21.81h-23.69z"></path><path fill="#b1c1f2" d="m154.89 275.93-2.78 32.64 13.56-.44 2.76-41.83-8.58 5.03-3.92 3.5M216.35 276.61l2.55 31.97-12.42-.43-2.43-40.62 7.66 4.99 3.69 3.02M172.77 275.29l-1.85 32.97 11.83.2 2.65-45.92-5.12.14-6.18 1.16M200.57 275.16l1.67 32.97-10.64.2-2.25-45.61 5.58 1.17 4.66 1.49"></path><g data-name="window copy"><path fill="#bac6f2" d="M880.86 516.77h6.53l72.92-.07s4-22-12-35-32.57-13-44.57-7-23.32 15.03-22.88 42.07Z" transform="translate(-634.23 -207.65)"></path><path fill="#bac6f2" d="m253.16 309.11-.55 53.32h67.85v-54.67l-68.4-1.1 1.1 2.45"></path><path fill="#bac6f2" d="m252.61 362.43-4.46-.33v9.03h76.7l-.37-9.03-71.87.33z"></path><path fill="#fff" d="M261.06 312.09h23.69v21.81h-23.69zM289.56 311.84h22.64v21.81h-22.64zM289.44 339.29h23.08v21.81h-23.08zM261.28 339.28h23.69v21.81h-23.69z"></path><path fill="#b1c1f2" d="m256.2 276.62-2.78 32.64 13.56-.43 2.76-41.83-8.57 5.03-3.93 3.5M317.66 277.3l2.55 31.98-12.42-.43-2.43-40.63 7.66 4.99 3.69 3.02M274.08 275.98l-1.85 32.97 11.83.2 2.65-45.92-5.12.14-6.18 1.17M301.89 275.86l1.66 32.96-10.63.2-2.26-45.6 5.59 1.16 4.65 1.49"></path></g><g data-name="window copy 2"><path fill="#bac6f2" d="M980.79 516.77h6.53l72.92-.07s4-22-12-35-32.57-13-44.57-7-23.33 15.03-22.88 42.07Z" transform="translate(-634.23 -207.65)"></path><path fill="#bac6f2" d="m353.08 309.11-.55 53.32h67.86v-54.67l-68.41-1.1 1.1 2.45"></path><path fill="#bac6f2" d="m352.53 362.43-4.46-.33v9.03h76.71l-.38-9.03-71.87.33z"></path><path fill="#fff" d="M360.98 312.09h23.69v21.81h-23.69zM389.48 311.84h22.64v21.81h-22.64zM389.37 339.29h23.08v21.81h-23.08zM361.2 339.28h23.69v21.81H361.2z"></path><path fill="#b1c1f2" d="m356.13 276.62-2.78 32.64 13.56-.43 2.75-41.83-8.57 5.03-3.93 3.5M417.59 277.3l2.55 31.98-12.43-.43-2.42-40.63 7.66 4.99 3.69 3.02M374.01 275.98l-1.85 32.97 11.83.2 2.64-45.92-5.11.14-6.18 1.17M401.81 275.86l1.67 32.96-10.64.2-2.25-45.6 5.58 1.16 4.65 1.49"></path></g><g data-name="window copy 3"><path fill="#bac6f2" d="M779.78 668.56h17.29l193-.07s15.67-24.32-26.68-37.6-112-9.5-143.73-3.37-41.06 13.43-39.88 41.04Z" transform="translate(-634.23 -207.65)"></path><path fill="#bac6f2" d="m148.08 461.4-1.69 87.13h208.89V459.2l-210.58-1.8 3.38 4"></path><path fill="#fff" d="M158.21 462.58h184.05v44.37H158.21zM223.11 514.1h53.01v21.81h-53.01zM159.47 514.48h53.01v21.81h-53.01zM287.51 514.48h53.01v21.81h-53.01z"></path><path fill="#b1c1f2" d="m165.09 426.76-3.78 31.51 18.01-.41 3.2-38.18-10.56 2.53-5.84 2.4M194.81 427.08l-3.03 30.89 18.07-.23 3.29-41.85-8.82 1.04-7.97.74M329.36 426.53l2.97 31.51-14.16-.41-2.51-38.18 8.3 2.53 4.59 2.4M305.86 426.85l2.52 30.89-15.05-.23-2.73-41.85 7.34 1.04 6.63.74M278.23 426.61l2.52 30.89-15.05-.22-2.8-42.84 7.13.35 6.79.35M245.51 427.76l2.52 30.89-15.05-.22-2.8-42.83 7.5-.26 7.05-.15"></path></g></g><g data-name="build 2"><path fill="#e9edfa" d="m471.54 356.54-.95 200.18 338.27.91V354.68l-337.32 1.86z"></path><path fill="#bac6f2" d="M468.72 547.4h343v11h-343zM452.84 356.35h375.14v13.26H452.84z"></path><path fill="#bac6f2" d="M1093 566.16s4-59.6 43-60.74c32.12-.94 196.75-.13 253.46.39 33.4.31 62 25 66.07 58.15q.13 1.09.24 2.2Z" transform="translate(-634.23 -207.65)"></path><path fill="#b1c1f2" d="M788.23 446.6h20v13h-19l-1-13zM796.48 392.3h12v13h-11l-1-13zM486.17 489.35h32v12h-32zM474.85 436.64h32v12h-32zM494.73 393.95h32v12h-32zM608.52 383.43h32v12h-32zM769.98 423.34h32v12h-32zM752.67 516.01h32v12h-32zM676.7 373.84h32v12h-32z" data-name="details copy"></path><g data-name="window copy 4"><path fill="#bac6f2" d="M1167.18 667.28h17.29l193-.07s15.67-24.32-26.68-37.6-112-9.5-143.73-3.37-41.06 13.43-39.88 41.04Z" transform="translate(-634.23 -207.65)"></path><path fill="#bac6f2" d="m535.48 460.12-1.69 87.13h208.89v-89.33l-210.58-1.8 3.38 4"></path><path fill="#fff" d="M610.51 461.3h119.15v44.37H610.51zM610.51 512.82h53.01v21.81h-53.01zM546.87 462.13h53.01v72.88h-53.01zM674.92 513.2h53.01v21.81h-53.01z"></path><path fill="#b1c1f2" d="m552.49 425.48-3.77 31.51 18.01-.41 3.19-38.18-10.55 2.53-5.84 2.4M582.21 425.8l-3.02 30.89 18.07-.23 3.28-41.85-8.81 1.04-7.97.74M716.77 425.25l2.96 31.51-14.15-.41-2.51-38.18 8.29 2.53 4.59 2.4M693.27 425.57l2.51 30.89-15.05-.23-2.73-41.85 7.34 1.04 6.64.74M665.63 425.33l2.52 30.89-15.05-.22-2.8-42.83 7.13.34 6.79.35M632.92 426.49l2.51 30.88-15.05-.22-2.8-42.83 7.5-.26 7.05-.14"></path></g></g><g data-name="Layer 13"><rect width="9.33" height="19.06" x="837.69" y="545.38" fill="#fff" rx="4.66" ry="4.66"></rect><rect width="9.33" height="19.06" x="867.69" y="545.38" fill="#fff" rx="4.66" ry="4.66"></rect><path fill="#bac6f2" d="M1468.28 683.74s-7.24 75.15-5.86 76.18 56.53 1.72 57.91.69-4.14-76.18-5.17-76.53-45.16-1.37-46.88-.34Z" transform="translate(-634.23 -207.65)"></path><rect width="34.13" height="3.79" x="841.28" y="495.05" fill="#fff" rx="1.9" ry="1.9"></rect><rect width="41.71" height="3.79" x="837.15" y="507.11" fill="#fff" rx="1.9" ry="1.9"></rect></g></svg>