<svg xmlns="http://www.w3.org/2000/svg" data-name="1" viewBox="0 0 4680 3120" id="ceo-managing-multiple-projects-and-tasks-simultaneously"><rect width="4680" height="3120" fill="#fff" data-name="1" opacity="0"></rect><ellipse cx="2238.75" cy="2655.35" fill="#018a9c" rx="1152.05" ry="83.8"></ellipse><path fill="#f19a6d" d="M3028.6,589,3002,667.9c.81,18.42,24.05,43.22,58.12,29.4l16.32-69.14Z"></path><path fill="#f19a6d" d="M3030.56,629.21a51.69,51.69,0,0,1,2-63.86,159,159,0,0,1,15.28-15.68c11.67-10.53,38.2-36.38,48.07-46.66s15-19.27,21.36-11.05-24.37,51.75-24.37,51.75,71.25-40.5,85.28-31.84-12.1,20-12.1,20,32.89-10.38,37.29-1-29.26,21.37-29.26,21.37,28.63-6.78,33.43.44-16.18,15.63-27.26,19.07c0,0,27.28-3.45,29.48,5.55s-23.57,10.26-39.42,14.81-54.41,13.65-64.15,32c-5.8,10.91-22.5,20.79-37.22,22-16.74,1.42-28.39-6.53-38.37-16.95Z"></path><path fill="#bb3b2d" d="M3168.89 533.1a121.22 121.22 0 00-39.82 13.71c-2.3 1.27-4.2-2.34-1.91-3.61A124.4 124.4 0 013168 529.12c2.59-.42 3.48 3.57.88 4zM3178.57 552.75c-12.76 2.76-25.44 6.11-36.61 13.09-2.23 1.39-4.12-2.23-1.91-3.61 11.47-7.16 24.55-10.63 37.64-13.47 2.56-.56 3.45 3.43.88 4zM3183.34 573.55a96 96 0 00-33.78 10.38c-2.33 1.22-4.23-2.39-1.91-3.61a98.73 98.73 0 0134.81-10.75c2.58-.3 3.49 3.68.88 4zM3094 544.23A89.24 89.24 0 013064.21 578c-2.17 1.48-4.06-2.14-1.91-3.61A85.38 85.38 0 003090.59 542c1.19-2.34 4.62-.12 3.44 2.2z"></path><path fill="#bb3b2d" d="M3088.43 560.68a63.71 63.71 0 01-17.68 64.11c-1.92 1.8-4.69-1.21-2.77-3a59.61 59.61 0 0016.46-60.23c-.74-2.52 3.25-3.39 4-.88zM3124.54 539.72a55.16 55.16 0 0122 48.43c-.19 2.61-4.27 2.42-4.07-.21a51 51 0 00-20.15-44.78c-2.09-1.57.09-5 2.19-3.44z"></path><path fill="#f19a6d" d="M3110.67,921.79l-26.62,78.88c.81,18.42,24,43.22,58.12,29.4l16.32-69.14Z"></path><path fill="#f19a6d" d="M3112.64,962a51.68,51.68,0,0,1,2-63.86,160.06,160.06,0,0,1,15.28-15.67c11.67-10.53,38.2-36.38,48.07-46.66s15-19.27,21.36-11-24.37,51.75-24.37,51.75,71.24-40.5,85.28-31.84-12.1,20-12.1,20,32.88-10.38,37.29-1-29.26,21.37-29.26,21.37,28.63-6.78,33.42.44-16.18,15.63-27.25,19.07c0,0,27.28-3.46,29.48,5.55s-23.57,10.26-39.42,14.81-54.41,13.65-64.15,32c-5.8,10.92-22.5,20.79-37.22,22-16.74,1.43-28.39-6.52-38.37-16.95Z"></path><path fill="#bb3b2d" d="M3251 865.87a121.22 121.22 0 00-39.82 13.71c-2.3 1.27-4.21-2.34-1.91-3.61a124.65 124.65 0 0140.85-14.09c2.59-.41 3.48 3.57.88 4zM3260.64 885.51c-12.75 2.77-25.43 6.12-36.6 13.1-2.23 1.39-4.12-2.23-1.91-3.61 11.47-7.17 24.54-10.63 37.63-13.47 2.57-.56 3.46 3.43.88 4zM3265.41 906.32a96 96 0 00-33.77 10.38c-2.33 1.22-4.24-2.39-1.91-3.61a98.67 98.67 0 0134.81-10.75c2.58-.3 3.49 3.68.87 4zM3176.11 877a89.4 89.4 0 01-29.82 33.78c-2.17 1.48-4.06-2.15-1.91-3.61a85.52 85.52 0 0028.29-32.37c1.18-2.34 4.62-.13 3.44 2.2z"></path><path fill="#bb3b2d" d="M3170.51 893.45a63.71 63.71 0 01-17.68 64.11c-1.93 1.79-4.69-1.21-2.77-3a59.61 59.61 0 0016.46-60.23c-.74-2.53 3.25-3.39 4-.88zM3206.62 872.49a55.19 55.19 0 0122 48.43c-.2 2.61-4.27 2.42-4.08-.21a51 51 0 00-20.14-44.78c-2.09-1.58.09-5 2.19-3.44z"></path><path fill="#f19a6d" d="M2108.5,596.11,2135.12,675c-.81,18.41-24,43.22-58.12,29.39l-16.32-69.14Z"></path><path fill="#f19a6d" d="M2106.53,636.29a51.67,51.67,0,0,0-2-63.86,157.86,157.86,0,0,0-15.28-15.67c-11.67-10.54-38.2-36.39-48.07-46.66s-15-19.27-21.36-11.05,24.37,51.75,24.37,51.75S1973,510.29,1959,519s12.1,20,12.1,20-32.88-10.39-37.29-1S1963,559.36,1963,559.36s-28.63-6.77-33.42.44,16.18,15.64,27.25,19.08c0,0-27.28-3.46-29.48,5.55s23.57,10.25,39.42,14.8,54.41,13.66,64.15,32c5.8,10.92,22.5,20.79,37.22,22,16.74,1.42,28.39-6.52,38.37-17Z"></path><path fill="#bb3b2d" d="M1968.2 540.19a121.43 121.43 0 0139.82 13.7c2.3 1.28 4.21-2.34 1.91-3.61a124.86 124.86 0 00-40.85-14.08c-2.59-.41-3.48 3.57-.88 4zM1958.53 559.83c12.75 2.77 25.43 6.11 36.6 13.09 2.23 1.4 4.12-2.22 1.91-3.61-11.47-7.16-24.54-10.63-37.63-13.47-2.57-.55-3.46 3.43-.88 4zM1953.76 580.64A95.77 95.77 0 011987.53 591c2.33 1.22 4.24-2.39 1.91-3.61a98.87 98.87 0 00-34.81-10.75c-2.58-.3-3.49 3.69-.87 4zM2043.06 551.32a89.4 89.4 0 0029.82 33.78c2.17 1.48 4.06-2.15 1.91-3.61a85.52 85.52 0 01-28.29-32.37c-1.18-2.35-4.62-.13-3.44 2.2z"></path><path fill="#bb3b2d" d="M2048.66 567.76a63.72 63.72 0 0017.68 64.12c1.93 1.79 4.69-1.21 2.77-3a59.63 59.63 0 01-16.46-60.24c.74-2.52-3.25-3.39-4-.88zM2012.55 546.8a55.2 55.2 0 00-22 48.44c.2 2.61 4.27 2.41 4.08-.22a51 51 0 0120.14-44.78c2.09-1.57-.09-5-2.19-3.44z"></path><circle cx="3195.29" cy="586.11" r="96.94" fill="#efa245" transform="rotate(-45 3195.288 586.118)"></circle><path fill="#f4d242" d="M3195.29,477.15a109,109,0,1,0,109,109A109,109,0,0,0,3195.29,477.15Zm0,199.52a90.56,90.56,0,1,1,90.55-90.56A90.21,90.21,0,0,1,3195.29,676.67Z"></path><path fill="#f4d242" d="M3202.58,579.26V553c12.42,2.14,12.42,9.85,12.42,12.64h14.59c0-15.33-10-25.21-27-27.35V527.75H3188v10.51c-17,2.14-27,12-27,27.35s10,25.22,27,27.36v26.29c-12.41-2.15-12.42-9.85-12.42-12.65H3161c0,15.34,10,25.22,27,27.36v10.51h14.59V634c17.05-2.14,27-12,27-27.36S3219.63,581.4,3202.58,579.26Zm-27-13.65c0-2.79,0-10.5,12.42-12.64v25.29C3175.58,576.12,3175.57,568.41,3175.57,565.61Zm27,53.65V594c12.42,2.14,12.42,9.85,12.42,12.64S3215,617.11,3202.58,619.26Z"></path><polygon fill="#4d51ac" points="2997.93 634.58 2898.38 831.67 2672.39 958.11 2769.81 1057.75 2990.96 900.18 3086.33 671.32 2997.93 634.58"></polygon><polygon fill="#4d51ac" points="2137.33 632.38 2228.09 843.16 2407.24 951.02 2330.62 1053.56 2138.08 916.37 2048.93 669.11 2137.33 632.38"></polygon><path fill="#e33f57" d="M3242,1023.46l-86.59-34.1a17.11,17.11,0,0,1-9.65-22.19l73.3-186.12a17.11,17.11,0,0,1,22.19-9.65l86.59,34.1a17.13,17.13,0,0,1,9.65,22.2l-73.29,186.11A17.13,17.13,0,0,1,3242,1023.46Z"></path><path fill="#fff" d="M3258.43,985.13l-88.83-35,60-152.41A11.86,11.86,0,0,1,3245,791l66.73,26.27a11.89,11.89,0,0,1,6.7,15.41Z"></path><circle cx="3206.57" cy="985.39" r="9.62" fill="#a00413" transform="rotate(-76.72 3206.462 985.437)"></circle><path fill="#ffb600" d="M2498.71,2011.53h246.18c78,0,161.5-42.69,173.48-119.75a1462.11,1462.11,0,0,0,15.5-294.43c-5.06-103.58-58.19-199.94-139.61-264.15h0s60.88,313.75,16.33,510.06C2785.18,1955.26,2498.71,2011.53,2498.71,2011.53Z"></path><path fill="#f19a6d" d="M2002.61,867l21.91,80.31c-1.91,18.34-26.57,41.73-59.77,25.91l-12.18-70Z"></path><path fill="#f19a6d" d="M1998.27,906.94a51.69,51.69,0,0,0,1.83-63.86,159,159,0,0,0-14.33-16.55c-11-11.21-36-38.59-45.22-49.43s-13.87-20.13-20.66-12.29,21.26,53.1,21.26,53.1-68.73-44.65-83.25-36.84,10.89,20.72,10.89,20.72-32.21-12.32-37.16-3.2,27.94,23.06,27.94,23.06-28.18-8.46-33.39-1.54,15.22,16.56,26.08,20.65c0,0-27-5.06-29.76,3.8s22.92,11.63,38.47,17.11,53.5,16.85,62.14,35.71c5.15,11.24,21.23,22.09,35.85,24.21,16.63,2.41,28.73-4.83,39.31-14.65Z"></path><path fill="#bb3b2d" d="M1865.87 802.81a121 121 0 0138.94 16.05c2.23 1.4 4.34-2.09 2.12-3.5A124.39 124.39 0 001867 798.89c-2.56-.57-3.69 3.35-1.12 3.92zM1855.05 821.85c12.57 3.52 25 7.61 35.77 15.24 2.14 1.52 4.24-2 2.12-3.49-11-7.83-23.87-12.07-36.77-15.68-2.53-.71-3.65 3.22-1.12 3.93zM1849.06 842.34a95.78 95.78 0 0133.1 12.36c2.25 1.35 4.37-2.14 2.12-3.49a98.76 98.76 0 00-34.11-12.8c-2.56-.45-3.7 3.47-1.11 3.93zM1940 818.36a89.31 89.31 0 0027.76 35.49c2.08 1.6 4.18-1.91 2.12-3.49a85.52 85.52 0 01-26.32-34c-1-2.41-4.6-.4-3.56 2z"></path><path fill="#bb3b2d" d="M1944.56 835.11a63.7 63.7 0 0013.85 65c1.82 1.91 4.76-.92 2.94-2.82a59.63 59.63 0 01-12.86-61.11c.89-2.47-3-3.58-3.93-1.11zM1909.75 812a55.22 55.22 0 00-24.86 47.05c0 2.62 4.13 2.66 4.09 0a51 51 0 0122.76-43.51c2.18-1.45.21-5-2-3.57z"></path><path fill="#4d51ac" d="M2308.44 998s-157.37 157.5-194.57 174.63c0 0-9.11-20.23-37.64-109.86-19.76-62.08-45.75-152.57-45.75-152.57L1955 970.92s49.44 276.15 85.89 378.27c36.65 102.68 294.24-150.74 294.24-150.74zM2776.46 982.78s188.62 200.85 225.82 218c0 0 9.11-20.24 37.64-109.86 19.76-62.08 45.76-152.57 45.76-152.57L3161.2 999s-49.43 276.16-85.89 378.28c-36.65 102.68-294.24-150.74-294.24-150.74z"></path><path fill="#121e77" d="M2034 1320.21c32.65-6.88 64.33 10.53 75.62 42 1.11 3.11 5.91 1.26 4.79-1.86a70.18 70.18 0 00-80.93-45.2c-3.2.68-2.72 5.79.52 5.11zM1988 970.41a7.71 7.71 0 11-8.44-6.89A7.7 7.7 0 011988 970.41zM2039.92 948.68c-26.62 17.57-51.38 37.79-78 55.36-2.76 1.82.26 6 3 4.16 26.63-17.58 51.38-37.79 78-55.37 2.75-1.82-.27-6-3-4.15z"></path><path fill="#121e77" d="M2007.21 930a281.77 281.77 0 008.92 35c1 3.14 5.81 1.29 4.79-1.85a269.73 269.73 0 01-8.6-33.7c-.61-3.22-5.72-2.74-5.11.52zM2111.39 1174.43l-18.12 55.13c-1 3 3.47 5 4.45 2l18.12-55.13c1-3-3.47-5-4.45-2z"></path><path fill="#121e77" d="M2104.31,1202.49l5.22,18.31c.86,3,5.42,1.24,4.56-1.77l-5.22-18.3c-.86-3-5.42-1.25-4.56,1.76Z"></path><path fill="#4d51ac" d="M2860.87,1737.89c-12.15-58.1-49.46-249.18-70.43-452.23-.59-5.71-.52-11.37-.59-16.92-.72-56.89,7.46-100.58,12.73-138.92,5.86-42.47,8.11-78.37-9.26-118.33-14.22-32.69-33.65-48.74-56.64-57.57-2-.79-4.12-1.51-6.22-2.18-29.39-9.48-64.08-9-100.9-16.85a209,209,0,0,1-51.77-17.7c-88.92-44.78-128.9,13-128.9,13s-13,4.25-31.11,11c-7.32,2.71-15.48,5.81-24,9.21-1.73.68-3.48,1.38-5.23,2.11-28.93,11.75-60.47,26.44-75.34,39.61-20.55,18.23-18.79,93.84-12.37,173.62.16,2,.33,4,.5,6,.56,6.84,1.16,13.71,1.79,20.57.94,10.34,1.91,20.66,2.91,30.83h0c.21,2.25.43,4.49.64,6.71,2.53,25.68,5,50.27,6.91,71.88q.32,3.61.6,7.13c1,12.52,1.82,23.9,2.21,33.73q.26,6.39.28,11.85c.15,38.8-12.86,342.78-19.37,397.07C2453.58,1770.93,2635.24,1760,2860.87,1737.89Z"></path><path fill="#121e77" d="M2641.36 1522.57c3.76 27.64 9.73 57.14 28.24 79.06 14.88 17.61 36.84 29.27 60.26 26.53 3.28-.39 2.77-5.5-.51-5.11-23.3 2.72-45.09-10.06-58.72-28.39-15.55-20.9-20.73-47.35-24.16-72.61-.45-3.27-5.56-2.77-5.11.52zM2373.63 1529c.89 43.27-11.48 101-62.57 109.11-3.25.52-2.76 5.63.52 5.11 22.22-3.54 40.43-18.16 51.7-37.29 13.69-23.25 16-51 15.46-77.44-.06-3.31-5.17-2.77-5.11.51zM2533.29 1467.78a9.29 9.29 0 11-10.18-8.31A9.29 9.29 0 012533.29 1467.78zM2535.1 1542.81a9.29 9.29 0 11-10.18-8.31A9.29 9.29 0 012535.1 1542.81zM2539.78 1624.92a9.29 9.29 0 11-10.17-8.31A9.28 9.28 0 012539.78 1624.92zM2755 1224.06a2328.64 2328.64 0 0033.85 394q9.6 55.6 21.91 110.71c.71 3.18 5.83 2.71 5.11-.52a2328.51 2328.51 0 01-53-391.85q-2.76-56.37-2.78-112.83c0-3.3-5.11-2.76-5.11.52zM2496.75 1425.71q5.23 162.35 10.45 324.69c.11 3.3 5.22 2.77 5.11-.52q-5.22-162.35-10.45-324.68c-.1-3.31-5.21-2.78-5.11.51zM2294.42 1122.2q4.92 48.12 9.86 96.25c.33 3.29 5.44 2.78 5.11-.51q-4.93-48.14-9.86-96.26c-.34-3.28-5.45-2.77-5.11.52z"></path><path fill="#f19a6d" d="M2578.65,940.92c-5.41,14.45-122.51,112.39-135.89,13.57L2456,901.87l8.76-34.72,6.13-24.31,106-46.91C2568.68,841.49,2568.79,906.71,2578.65,940.92Z"></path><path fill="#042b32" d="M2546,859.78c-41.89,53-80.45,60.16-93.3,55.33l12.1-48Z"></path><path fill="#121e77" d="M3069.1 1356.25a76.44 76.44 0 00-72.18 6.78c-2.71 1.81-.44 6.42 2.32 4.59a71.73 71.73 0 0168.19-6.51c3.06 1.29 4.7-3.58 1.67-4.86zM3074.51 988.56q38.19 24.32 78.56 44.89c2.94 1.5.06 5.76-2.86 4.27q-40.34-20.57-78.55-44.89c-2.8-1.78.06-6 2.85-4.27z"></path><path fill="#121e77" d="M3094.34 1002.09l14.18-27.18c1.53-2.93 5.79 0 4.27 2.85q-7.08 13.59-14.18 27.18c-1.53 2.94-5.78 0-4.27-2.85zM3133.76 1008.47a6.72 6.72 0 10-9-3.1A6.72 6.72 0 003133.76 1008.47zM2668.88 1169.05L2786 1242.69c2.77 1.74 6.05-2.22 3.25-4l-117.08-73.64c-2.76-1.74-6 2.22-3.24 4z"></path><path fill="#121e77" d="M2734.17 1205.55l-30 3c-3.29.33-2.78 5.45.52 5.11l30-3c3.28-.33 2.77-5.44-.52-5.11zM3034.87 1255.72a141.71 141.71 0 00-33.5-51.37c-2.25-2.21 1.15-5.74 3.39-3.53a147.5 147.5 0 0134.83 53.61c1.11 2.94-3.62 4.22-4.72 1.29z"></path><path fill="#121e77" d="M3032.08 1202a140.08 140.08 0 012.75 39.71c-.23 3.11-5.12 3.18-4.89 0a135.29 135.29 0 00-2.58-38.45c-.66-3.06 4.06-4.38 4.72-1.29zM2941.36 884.45a141.55 141.55 0 00-39.66-46.77c-2.5-1.91.42-5.84 2.93-3.92a147.65 147.65 0 0141.26 48.83c1.46 2.78-3.06 4.63-4.53 1.86z"></path><path fill="#121e77" d="M2931.88,831.53a139.94,139.94,0,0,1,7.7,39c.16,3.13-4.69,3.8-4.85.65a134.86,134.86,0,0,0-7.38-37.82c-1-3,3.48-4.85,4.53-1.87Z"></path><path fill="#fff" d="M2510,1413.8l62.74-356c-24.58-22.68-60.76-45.52-80.7-60.63l-58.2,55.35,56.7,363.29Z"></path><path fill="#df1623" d="M2508.35,1414l26.25-176.65-24.45-168.57-30.15,0-12.77,159c7.8,62.65,16.69,137.19,23.41,188Z"></path><polygon fill="#df1623" points="2452.72 1034.53 2493.92 1086.26 2541.66 1034.79 2492.06 997.12 2452.72 1034.53"></polygon><path fill="#121e77" d="M2603.29,927.81s37.48,2.35,55.18,21.13l-32.67,158.45-34.68,9,13.57,43.55-26.43,195.63L2499.91,1425S2548.82,1144.93,2603.29,927.81Z"></path><path fill="#fff" d="M2452.7,915.11c-7.31-7.6-42,7.07-46.82,30.53l28,106.83,58.2-55.35S2448.75,964.75,2452.7,915.11Z"></path><path fill="#fff" d="M2572.38,914.58s-21.14,55.54-80.32,82.54c0,0,52,36.2,80.7,60.63l46.93-127.49C2619.33,921.61,2593.22,900.34,2572.38,914.58Z"></path><path fill="#121e77" d="M2405.88,945.64s-39.65,4.67-56.49,24.23L2382.47,1127l41.26-4.16-30,59.27,35.14,194.26,71,48.63S2470,1160.11,2405.88,945.64Z"></path><polygon fill="#ff8c62" points="1867.79 2422.49 1827 2489.12 1749.29 2454.72 1784.57 2383.13 1867.79 2422.49"></polygon><path fill="#e33f57" d="M1503.19,2492.58l293.92,130.1c4-3,7.63-8.11,11.1-14.61,12.84-24.05,22.48-67.24,29.67-94,.82-3.13,1.62-6,2.4-8.64a95.16,95.16,0,0,1,3.65-10.61c9-20.41-10.59-24.91-10.59-24.91-42.65,16-57-42.65-83-37,0,0-11.16,2.33-43.79,13s-78.45,7-118.49,6.14c-51.68-1.08-72.11,11.66-80.08,23.14C1501.7,2484.28,1503.19,2492.58,1503.19,2492.58Z"></path><path fill="#c82b1e" d="M1503.19,2492.58l293.92,130.1c4-3,7.63-8.11,11.1-14.61L1508,2475.19C1501.7,2484.28,1503.19,2492.58,1503.19,2492.58Z"></path><path fill="#c82b1e" d="M1767.13 2609.41l8.73 3.86c-4.31-13.81-5.7-32.69 5-54.06 14.27-28.41 40.36-40.27 57-45.12.82-3.13 1.62-6 2.4-8.64-17.47 4.19-49.12 16.29-66.23 50.32C1763.8 2576.17 1763.76 2594.75 1767.13 2609.41zM1703.88 2465.46a5.3 5.3 0 005.39-9l-16.35-12.69a5.3 5.3 0 00-6.49 8.37l16.34 12.68A5.29 5.29 0 001703.88 2465.46zM1728.89 2458.25a5.3 5.3 0 005.39-9l-16.34-12.69a5.3 5.3 0 10-6.5 8.37l16.34 12.68A5.75 5.75 0 001728.89 2458.25zM1680.79 2468a5.3 5.3 0 005.39-9l-16.34-12.68a5.29 5.29 0 00-6.5 8.36l16.35 12.69A5.44 5.44 0 001680.79 2468zM1657.89 2470.13a5.3 5.3 0 005.39-9l-16.34-12.68a5.3 5.3 0 00-6.5 8.37l16.35 12.68A5.18 5.18 0 001657.89 2470.13zM1633.67 2470.76a5.3 5.3 0 005.39-9l-16.34-12.68a5.29 5.29 0 10-6.5 8.36l16.35 12.69A5.18 5.18 0 001633.67 2470.76zM1608.38 2469.24a5.3 5.3 0 005.39-9l-16.35-12.68a5.3 5.3 0 10-6.49 8.37l16.34 12.68A5.24 5.24 0 001608.38 2469.24z"></path><path fill="#121e77" d="M2050.29,1779.65c27.27-26.85,242.48-86.87,385.37-47,16.37,31.5,37.19,111.35-14,185.19-187.83,30.7-292.65,93.88-292.65,93.88s-66.6,153.9-106.17,210.39S1892.51,2458,1892.51,2458l-136.73-58.42S1976,1852.74,2050.29,1779.65Z"></path><path fill="#031151" d="M1907.14,2424.16a3.85,3.85,0,0,1-1.51-.31l-133.82-55.62a3.94,3.94,0,1,1,3-7.27l133.81,55.63a3.93,3.93,0,0,1-1.51,7.57Z"></path><path fill="#031151" d="M1884.65,2412.91a3.85,3.85,0,0,1-1.45-.28,3.94,3.94,0,0,1-2.21-5.11c.27-.69,28.28-70.55,93.58-169.66,64.87-98.44,132.71-264.83,133.38-266.5a3.94,3.94,0,1,1,7.3,3c-.68,1.67-68.8,168.78-134.1,267.87-64.87,98.44-92.57,167.55-92.84,168.23A4,4,0,0,1,1884.65,2412.91Z"></path><polygon fill="#ff8c62" points="2212.9 2434.23 2202.57 2511.67 2117.59 2511.67 2120.87 2431.93 2212.9 2434.23"></polygon><path fill="#e33f57" d="M1907.87,2645.89H2229.3c2.39-4.34,3.69-10.5,4.23-17.85,2-27.18-6.66-70.58-10.9-97.94-.52-3.19-1-6.18-1.31-8.87a94.82,94.82,0,0,1-1-11.18c0-22.33-19.77-18.5-19.77-18.5-32.52,31.89-69.35-15.94-90.86-.25,0,0-9.26,6.64-34.78,29.6S2006,2559,1969.1,2574.47c-47.7,19.94-61.23,39.86-63.87,53.57C1903.15,2638.91,1907.87,2645.89,1907.87,2645.89Z"></path><path fill="#c82b1e" d="M1907.87,2645.89H2229.3c2.39-4.34,3.69-10.5,4.23-17.85h-328.3C1903.15,2638.91,1907.87,2645.89,1907.87,2645.89Z"></path><path fill="#c82b1e" d="M2196.51 2645.89h9.55c-9.53-10.88-18.45-27.59-17.28-51.46 1.55-31.76 20.61-53.17 33.85-64.33-.52-3.19-1-6.18-1.31-8.87-14.27 10.9-38.32 34.78-40.19 72.81C2180 2616.85 2187.5 2633.86 2196.51 2645.89zM2080.41 2539.86a5.3 5.3 0 001.27-10.44l-20.08-5a5.3 5.3 0 10-2.55 10.28l20.08 5A5.16 5.16 0 002080.41 2539.86zM2100.36 2523.15a5.3 5.3 0 001.27-10.44l-20.08-5A5.3 5.3 0 002079 2518l20.08 5A5.68 5.68 0 002100.36 2523.15zM2060.33 2551.53a5.29 5.29 0 001.27-10.43l-20.08-5a5.3 5.3 0 00-2.55 10.28l20.08 5A5.66 5.66 0 002060.33 2551.53zM2040.25 2562.75a5.29 5.29 0 001.27-10.43l-20.08-5a5.3 5.3 0 00-2.55 10.28l20.08 5A5.66 5.66 0 002040.25 2562.75zM2018.36 2573.13a5.3 5.3 0 001.27-10.44l-20.08-5A5.3 5.3 0 101997 2568l20.08 5A5.16 5.16 0 002018.36 2573.13zM1994.61 2582a5.3 5.3 0 001.28-10.44l-20.08-5a5.3 5.3 0 10-2.55 10.28l20.07 5A5.16 5.16 0 001994.61 2582z"></path><path fill="#4d51ac" d="M2826.23,1734.83s66.33,261.76-277.66,261.76c-183.73,0-271.06-17.74-271.06-17.74s-4.42,162.24-13,230.68-38.83,239-38.83,239L2081,2459.71s-23.12-593.93,65.57-648.63,216.2-56.32,435.14-77.32C2581.72,1733.76,2778.29,1700.48,2826.23,1734.83Z"></path><path fill="#121e77" d="M2205.9,2401.07a4,4,0,0,1-.91-.11,4,4,0,0,1-2.92-4.75c20-83.54,27.94-203.23,34.32-299.4,6.3-94.81,10-144.68,19.91-153.4,10.85-9.59,43.06-6.17,96.44-.49,66.15,7,166.1,17.66,273.87,5.3,53.52-6.14,94.56-27.1,122-62.31,49.16-63.16,37.88-151.82,37.76-152.71a3.94,3.94,0,0,1,7.8-1c.51,3.75,11.87,92.73-39.31,158.54-28.75,37-71.59,59-127.31,65.35-108.64,12.46-209.11,1.77-275.6-5.29-45.9-4.89-82.15-8.74-90.4-1.45-1.87,1.65-5.57,9.79-9.41,45.78-2.83,26.56-5.16,61.64-7.85,102.25-6.41,96.47-14.38,216.53-34.52,300.72A4,4,0,0,1,2205.9,2401.07Z"></path><path fill="#121e77" d="M2082.58,2412.87a3.93,3.93,0,0,1-.23-7.86l148-8.92a3.93,3.93,0,0,1,.47,7.85l-148,8.93Z"></path><path fill="#ff8400" d="M2811.66,2362.55H2347.08a19.68,19.68,0,1,1,0-39.35h464.58a19.68,19.68,0,1,1,0,39.35Z"></path><path fill="#ffb600" d="M2304.33,2663.08a21.52,21.52,0,0,1-2.64-.17,19.69,19.69,0,0,1-16.89-22.12l84.63-631.88a19.67,19.67,0,0,1,19.5-17.06h379a19.68,19.68,0,0,1,19.51,17.1l83.31,631.88a19.68,19.68,0,1,1-39,5.14l-81.05-614.76H2406.15L2323.81,2646A19.68,19.68,0,0,1,2304.33,2663.08Z"></path><path fill="#b72b0f" d="M1854.41,1655h593.85a2.4,2.4,0,0,0,2.39-2.4h0a33.38,33.38,0,0,0-33.38-33.38H1854.41a2.4,2.4,0,0,0-2.4,2.4v31A2.4,2.4,0,0,0,1854.41,1655Z"></path><path fill="#dc5633" d="M1656.14,1326.82l74.12,313.49a18.5,18.5,0,0,0,18,14.25h456.6a18.51,18.51,0,0,0,18-22.77l-74.12-313.49a18.52,18.52,0,0,0-18-14.25h-456.6A18.51,18.51,0,0,0,1656.14,1326.82Z"></path><path fill="#b72b0f" d="M2112.67 1304.05l78.92 350.51h13.29a18.51 18.51 0 0018-22.77l-74.12-313.49a18.52 18.52 0 00-18-14.25zM1881.75 1491.57c2.3 19.17 19.7 34.71 38.87 34.71s32.84-15.54 30.54-34.71-19.7-34.71-38.87-34.71S1879.45 1472.4 1881.75 1491.57z"></path><path fill="#006bff" d="M1213.33,1679.77v24.12c0,13.89,11.72,25.14,26.18,25.14h1821c14.45,0,26.17-11.25,26.17-25.14v-24.12c0-13.88-11.72-25.12-26.17-25.12h-1821C1225.05,1654.65,1213.33,1665.89,1213.33,1679.77Z"></path><path fill="#0046ce" d="M1315,1728.74H2932.79a60.83,60.83,0,0,1,60.83,60.83V1791a0,0,0,0,1,0,0H1254.18a0,0,0,0,1,0,0v-1.48A60.83,60.83,0,0,1,1315,1728.74Z" transform="rotate(180 2123.9 1759.89)"></path><rect width="1648.04" height="42.71" x="1287.55" y="2098.62" fill="#0046ce" transform="rotate(180 2111.565 2119.98)"></rect><polygon fill="#006bff" points="3014.62 2670.85 2802.42 1791.04 2876.94 1791.04 3089.14 2670.85 3014.62 2670.85"></polygon><polygon fill="#006bff" points="1218.71 2670.85 1430.91 1791.04 1356.38 1791.04 1144.19 2670.85 1218.71 2670.85"></polygon><rect width="1873.31" height="11.04" x="1213.33" y="1691.83" fill="#0046ce"></rect><rect width="198.3" height="28.49" x="1408.61" y="1517.65" fill="#ffb600" transform="rotate(180 1507.76 1531.895)"></rect><path fill="#ffb600" d="M1405.92,1629.2c20,24.07,77.67,24.47,96.1,24h0c3.63-.09,5.72-.23,5.72-.23s77.9,5.08,101.85-23.72c13.59-16.35,6-40.89-3.16-59-2.17-4.32-4.43-8.27-6.52-11.69-4.58-7.5-8.3-12.31-8.3-12.31H1423.9a165.13,165.13,0,0,0-14.82,24C1400,1588.31,1392.33,1612.85,1405.92,1629.2Z"></path><path fill="#ff8400" d="M1571.89,1607.2c8.39,26.56-23,46.69-64.14,45.72,0,0,77.9,5.08,101.85-23.72,13.59-16.35,6-40.89-3.16-59-.21-.43-.43-.87-.66-1.28s-.43-.86-.65-1.28c-1.77-3.32-3.54-6.4-5.21-9.13-4.58-7.5-8.3-12.31-8.3-12.31H1423.9a165.13,165.13,0,0,0-14.82,24h75A146.17,146.17,0,0,1,1539,1580.6C1553.73,1586.55,1568.12,1595.25,1571.89,1607.2Z"></path><path fill="#009d57" d="M1437.86,1492.1c2.31,3.44,4.59,6.64,6.73,9.55,6.85,9.29,12.32,15.49,12.75,16a0,0,0,0,0,0,0h100.78a0,0,0,0,0,0,0c.43-.5,5.9-6.7,12.75-16,2.14-2.91,4.42-6.11,6.72-9.55,12.36-18.44,25.42-43.34,21.84-62.3-1.09-5.83-2.81-9.87-4.93-12.58A13.39,13.39,0,0,0,1591,1414c-10.88-6.34-27.56,8.49-32.83,8-7.11-.64,4.46-36.16,21-61.37,15.44-23.57,25.49-55.07,6.59-66.42a24.09,24.09,0,0,0-2.14-1.13,21.4,21.4,0,0,0-2.17-.91c-24.53-9-32.94,23.91-43.28,19.38-10.17-4.46,21-109.68-28-109.89-.76,0-1.57,0-2.38.06s-1.61-.07-2.37-.06c-49,.21-17.82,105.43-28,109.89-10.34,4.53-18.75-28.43-43.28-19.38a21.4,21.4,0,0,0-2.17.91,24.09,24.09,0,0,0-2.14,1.13c-18.9,11.35-8.85,42.85,6.57,66.42,16.51,25.21,28.09,60.73,21,61.37-5.29.48-21.95-14.35-32.83-8a13.39,13.39,0,0,0-3.58,3.19c-2.12,2.71-3.84,6.75-4.93,12.58C1412.45,1448.76,1425.51,1473.66,1437.86,1492.1Z"></path><path fill="#00743b" d="M1505.37,1201.7v316h4.76v-316c-.76,0-1.57,0-2.38.06S1506.15,1201.68,1505.37,1201.7Z"></path><path fill="#00743b" d="M1506 1382.73l1.79 1.56 1.81 1.55.57-.67 77.58-89.57-2-1.35a23.94 23.94 0 00-2.14-1.13l-73.44 84.78-2.38 2.75zM1506 1512.22l1.79 1.56 1.81 1.56.57-.67 84.42-97.46A12.52 12.52 0 001591 1414l-80.85 93.36-2.38 2.74z"></path><path fill="#00743b" d="M1427.81 1295.6l77.56 89.56.59.68 1.79-1.55 1.81-1.56-1.81-2.08-2.38-2.76L1432 1293.12a23.94 23.94 0 00-2.14 1.13zM1421 1417.21l84.4 97.44.59.69 1.79-1.56 1.81-1.56-1.81-2.08-2.38-2.76L1424.54 1414A12.52 12.52 0 001421 1417.21z"></path><circle cx="1375" cy="851.82" r="253.21" fill="#018a9c" transform="rotate(-45 1375.007 851.824)"></circle><circle cx="1351.78" cy="828.43" r="253.21" fill="#ff432a" transform="rotate(-45 1351.775 828.426)"></circle><circle cx="1351.78" cy="828.43" r="205.85" fill="#fccf12" transform="rotate(-45 1351.775 828.426)"></circle><path fill="#ffb600" d="M1205.69,973.45q5.79,5.84,11.91,11.09c-68.73-81-64.59-203,12.07-279.13s198.67-79.32,279.21-10q-5.2-6.15-11-12c-80-80.57-210.54-81-291.11-1.08S1125.72,892.88,1205.69,973.45Z"></path><path fill="#37202c" d="M1366.86,843.63a5.17,5.17,0,0,0,1.48-4.39l-24.11-167.62a5.15,5.15,0,0,0-10.2,1.46l23.53,163.57-114.1,44a5.15,5.15,0,1,0,3.7,9.62l117.93-45.49A5.07,5.07,0,0,0,1366.86,843.63Z"></path><path fill="#006bff" d="M2196.41,660.63v67.76a16.23,16.23,0,0,0,16.22,16.23h123l37.14,13.32a4.72,4.72,0,0,0,6-6.15l-14.05-36.28V660.63a16.23,16.23,0,0,0-16.23-16.22H2212.63A16.22,16.22,0,0,0,2196.41,660.63Z"></path><path fill="#0046ce" d="M2303.29 696.44A11.74 11.74 0 102315 684.7 11.74 11.74 0 002303.29 696.44zM2266.14 696.44a11.74 11.74 0 1011.73-11.74A11.74 11.74 0 002266.14 696.44zM2229 696.44a11.74 11.74 0 1011.73-11.74A11.74 11.74 0 002229 696.44z"></path><rect width="462.01" height="319.14" x="3131.05" y="1475.57" fill="#ffb600" transform="translate(-2.35 4.84)"></rect><polygon fill="#ff8400" points="3130.84 1475.91 3130.87 1496.38 3362.15 1700.78 3592.86 1495.71 3592.84 1475.25 3362.14 1681.02 3130.84 1475.91"></polygon><polygon fill="#ff8400" points="3406.58 1640.67 3579.91 1794.4 3593.3 1794.38 3593.28 1786.24 3416.51 1629.47 3406.58 1640.67"></polygon><polygon fill="#ff8400" points="3131.27 1787.99 3131.28 1795.05 3145.88 1795.02 3318.77 1640.79 3308.8 1629.63 3131.27 1787.99"></polygon><polygon fill="#f9c850" points="3592.85 1475.24 3362.14 1681.02 3130.84 1475.9 3592.85 1475.24"></polygon><path fill="#fafcff" d="M1775,878.13s11.31,3.76,31.12,8.78c-9.12-39.57-3.38-82.88,2.88-112l-31-1S1749.61,809,1775,878.13Z"></path><path fill="#0c6bf4" d="M1807,887.72l-.94-.24c-19.61-5-31.06-8.76-31.17-8.79l-.27-.09-.1-.27c-13.18-35.87-11.65-62.41-8-78.36,3.91-17.33,10.86-26,11.16-26.39l.18-.23,32,1-.15.69c-6.3,29.33-11.92,72.52-2.88,111.74Zm-31.47-10.07c1.8.59,12.53,4,29.88,8.45-8.72-38.87-3.27-81.42,3-110.61l-30-.94C1776,777.68,1751.71,812.67,1775.49,877.65Z"></path><rect width="187.13" height="249.97" x="1741.43" y="721.97" fill="#dc5633" transform="rotate(-25.01 1835.293 847.015)"></rect><rect width="187.13" height="249.97" x="1741.43" y="721.97" fill="#edf1f9" transform="rotate(-15.92 1834.84 846.914)"></rect><path fill="#f4d242" d="M1784.61,786.23a18.63,18.63,0,1,1-23-12.81A18.63,18.63,0,0,1,1784.61,786.23Z"></path><path fill="#bac1cc" d="M1871.1 823l-100.84 28.76a5.48 5.48 0 01-6.78-3.78h0a5.47 5.47 0 013.77-6.78l100.84-28.76a5.49 5.49 0 016.78 3.77h0A5.5 5.5 0 011871.1 823zM1902.58 844.06l-124.4 35.48a5.49 5.49 0 01-6.78-3.78h0a5.49 5.49 0 013.77-6.78l124.39-35.48a5.5 5.5 0 016.79 3.77h0A5.5 5.5 0 011902.58 844.06zM1909.92 869.82L1785.53 905.3a5.49 5.49 0 01-6.78-3.77h0a5.49 5.49 0 013.77-6.79l124.39-35.47a5.48 5.48 0 016.79 3.77h0A5.49 5.49 0 011909.92 869.82zM1916.84 894.06l-124.4 35.48a5.49 5.49 0 01-6.78-3.77h0a5.5 5.5 0 013.77-6.79l124.4-35.48a5.49 5.49 0 016.78 3.78h0A5.49 5.49 0 011916.84 894.06z"></path><path fill="#593131" d="M3091.94 2305.32l-203.52-.8.27-69.8a48.53 48.53 0 0148.67-48.29l106.57.42a48.52 48.52 0 0148.29 48.67zm-177.85-26.27l152.38.6.17-44.23a22.93 22.93 0 00-22.81-23l-106.57-.41a22.92 22.92 0 00-23 22.81zM3212.93 2684.4l-430.34-1.69a74.94 74.94 0 01-74.65-75.23l1.06-270.32 580.23 2.27-1.06 270.32A75 75 0 013212.93 2684.4z"></path><path fill="#754343" d="M3266.71,2387.29,3009,2441.42a65.49,65.49,0,0,1-27.49-.11l-257.29-56.15a28.24,28.24,0,0,1-22.22-27.7l.27-67.21a28.24,28.24,0,0,1,28.35-28.13l530.67,2.08a28.24,28.24,0,0,1,28.13,28.35l-.26,67.21A28.25,28.25,0,0,1,3266.71,2387.29Z"></path><rect width="143.79" height="49.28" x="2919.78" y="2334.9" fill="#593131" rx="14.87" transform="rotate(.37 3004.084 2368.866)"></rect><path fill="#ef7c59" d="M2452.41,830.65l111.89-13.84s-28.64,107.84-111.54,111Z"></path><path fill="#f19a6d" d="M2534.29,605.82c-60.73-6-97.22,14.88-111.78,77.9-.74,3.19-1.26,6.41-1.83,9.64-2.69,15.19-4.43,33.7.06,41.9,0,0-27.28,80.06,39.24,143.07,7.58,7.18,41.53.82,51-1.73,79.7-21.47,65.77-109.78,65.77-109.78,1.46-5.48,31.28-9.51,32.63-15.18C2622.32,697.18,2608.48,613.08,2534.29,605.82Z"></path><path fill="#ef7c59" d="M2443.87 781.66c1.3 19.67-5.46 37.72-17.07 50-21.84-50-6.06-96.41-6.06-96.41-.18-.32-.33-.69-.49-1C2433.44 744.87 2442.57 761.92 2443.87 781.66zM2571.1 742.86c11-.72 21.25 4.9 28.57 14.33-9.29 3.16-22 6.09-22.94 9.63 0 0 5.62 35.82-10.87 67.38-15-5.08-26.68-21.86-28-42.51C2536.13 766.05 2551 744.18 2571.1 742.86z"></path><path fill="#9e4c23" d="M2505.85 702.15c4.77-5.44 30.5 4.28 31.56 4.84 8.06 4.24 5.54 9.68 4.48 11.5-.62 1.06-3.61-.39-10.93-1.87-15.6-3.17-22.12-.69-25.22-5.33C2503.92 708.55 2504 704.32 2505.85 702.15zM2454.77 703.58c-3.2-5.06-22.16 1.95-23 2.42-6.43 3.58-6.22 9.56-5.56 11.23.39 1 2.77-.24 8.43-1.35 12.06-2.38 16.81.06 19.51-4C2455.74 709.42 2456 705.6 2454.77 703.58z"></path><path fill="#38261f" d="M2523.55 744.62c-.78 4-3.5 6.92-6.08 6.43s-4-4.18-3.26-8.22 3.5-6.92 6.07-6.42S2524.32 740.58 2523.55 744.62zM2449.22 740c-.78 4-3.31 6.93-5.66 6.48s-3.62-4.09-2.85-8.12 3.31-6.93 5.66-6.48S2450 736 2449.22 740z"></path><path d="M2422.51,683.72s-46.34-64-13.6-76.22,87.76-36.42,143.66-8.34,73.24,65.87,82.06,77.48c11.3,14.85-15.83,77.93-34,116.05-5.79,12.16-17.88,10.72-23.69-1.43l2-6-6.32-24.73-9.28-93.43s-101.91,11.91-129.45-10.59A68.88,68.88,0,0,0,2422.51,683.72Z"></path><path d="M2602.4 647.89c1.23-.08 28 9.83 29-6.82s-22.49-10.5-22.49-10.5 2.06-24.7-6.2-24.15-10.23 26.46-10.47 27.4S2602.4 647.89 2602.4 647.89zM2585.65 626.66c-67.92-73-173.46-33.41-174.52-33l-1.26-3.27c1.08-.42 108.82-40.84 178.36 33.88z"></path><path d="M2638.88,671.32c-67.93-73-173.47-33.41-174.52-33l-1.27-3.27c1.08-.42,108.83-40.84,178.36,33.88Z"></path><path fill="#ef7c59" d="M2623.65,773.68c-4.52,18.23-21.54,29.69-38,25.61s-26.15-22.18-21.62-40.41,21.54-29.69,38-25.61S2628.17,755.45,2623.65,773.68Z"></path><path fill="#38261f" d="M2596.79,776.48c-2-4.62-10.79-6.36-14-6.65l-2.24-.2.74-2.12c2.73-7.88,6.83-13,12.18-15.08a17,17,0,0,1,13.21.6l-1.62,3.11a13.7,13.7,0,0,0-10.34-.43c-3.9,1.57-7,5.24-9.36,10.94,4,.69,12.17,2.76,14.64,8.42Z"></path><path d="M2557.32,645.89s-18.68,103.31,14.45,107l-4.84-89.59Z"></path><path fill="#38261f" d="M2466.93,777.45c-.43-.22-10.71-5.51-15.29-12.48a4.31,4.31,0,0,1-.46-4.08c2.45-6.32,20.68-11.28,24.32-12.2l.86,3.39c-8.3,2.13-20.58,6.66-21.9,10.08a.83.83,0,0,0,.11.88c4.07,6.19,13.86,11.23,14,11.28Z"></path><path fill="#383939" d="M2504.31,810.38a21,21,0,0,1-1.76,3.22,28.55,28.55,0,0,1-21.8,12.14,26.36,26.36,0,0,1-11.08-1.86c-5.48-2.28-10-6.27-12.06-11.26-1.21-2.87-1.36-6.73,1.56-8.68a8.12,8.12,0,0,1,2.24-.91,29.5,29.5,0,0,1,4.52-.27,63.44,63.44,0,0,0,24-4.74,22.76,22.76,0,0,1,7.71-2.09c2.38-.13,4.4.43,5.81,2.08C2506.3,801.37,2506,806.24,2504.31,810.38Z"></path><path fill="#fff" d="M2497.59,795.93a8.49,8.49,0,0,1-.79,5.82c-1.14,1.88-3.17,2.93-5.18,3.73a53.22,53.22,0,0,1-23,4.14c-1.87-.09-3.9-.34-5.29-1.56s-1.81-3.13-1.91-5a29.5,29.5,0,0,1,4.52-.27,63.44,63.44,0,0,0,24-4.74A22.76,22.76,0,0,1,2497.59,795.93Z"></path><path fill="#ff1d38" d="M2502.55,813.6a28.55,28.55,0,0,1-21.8,12.14,26.36,26.36,0,0,1-11.08-1.86c2.21-4.42,6.88-7.62,11.67-9.42A31.71,31.71,0,0,1,2502.55,813.6Z"></path><path fill="#121e77" d="M2186.89,894.55a141.7,141.7,0,0,1,39.67-46.77c2.5-1.91-.42-5.84-2.93-3.92a147.62,147.62,0,0,0-41.26,48.82c-1.46,2.78,3.06,4.64,4.52,1.87Z"></path><path fill="#121e77" d="M2196.38 841.63a139.94 139.94 0 00-7.7 39c-.16 3.12 4.69 3.8 4.85.65a134.86 134.86 0 017.38-37.82c1-3-3.48-4.85-4.53-1.87zM2029.66 664.64h0a11.45 11.45 0 01-15.07-5.93l-52.31-120.17 21-9.14 52.31 120.17A11.44 11.44 0 012029.66 664.64z"></path><path fill="#121e77" d="M1909.17,387.74a82.67,82.67,0,1,0,108.8,42.8A82.74,82.74,0,0,0,1909.17,387.74Zm59.52,136.74A66.46,66.46,0,1,1,2003.1,437,66.42,66.42,0,0,1,1968.69,524.48Z"></path></svg>