<svg xmlns="http://www.w3.org/2000/svg" xmlns:xlink="http://www.w3.org/1999/xlink" width="32" height="32" id="shield"><defs><linearGradient id="a"><stop offset="0" stop-color="#000092"></stop><stop offset="1" stop-color="#ff00f3"></stop></linearGradient><linearGradient id="b" x1="3" x2="26" y1="16.001" y2="16.001" gradientUnits="userSpaceOnUse" xlink:href="#a"></linearGradient></defs><path style="line-height:normal;text-indent:0;text-align:start;text-decoration-line:none;text-decoration-style:solid;text-decoration-color:#000;text-transform:none;block-progression:tb;isolation:auto;mix-blend-mode:normal" fill="url(#b)" d="M16.006 1a.5.5 0 0 0-.158.023L12.172 2.2a.5.5 0 0 0-.326.328 3.495 3.495 0 0 1-3.344 2.471c-.766 0-1.51-.255-2.12-.72a.5.5 0 0 0-.456-.079l-2.578.824A.5.5 0 0 0 3 5.5v13.98c-.018 4.317 3.293 7.213 6.494 8.993 3.202 1.78 6.393 2.515 6.393 2.515a.5.5 0 0 0 .226 0s3.184-.735 6.381-2.515C25.691 26.693 29 23.797 29 19.48V5.5a.5.5 0 0 0-.348-.475l-2.574-.824a.5.5 0 0 0-.457.076 3.49 3.49 0 0 1-5.46-1.746.5.5 0 0 0-.327-.328l-3.682-1.18A.5.5 0 0 0 16.006 1zM16 2.025l3.408 1.09C20.086 4.807 21.653 5.998 23.5 6c.864 0 1.668-.346 2.39-.81l2.11.675V19.48c0 3.804-2.94 6.42-5.992 8.12-2.963 1.65-5.835 2.34-6.008 2.38-.173-.04-3.053-.73-6.02-2.38-3.057-1.7-5.996-4.313-5.98-8.116V5.87l2.113-.676c.721.464 1.523.809 2.385.81a.5.5 0 0 0 .002 0c1.85.001 3.42-1.19 4.098-2.886L16 2.025zm-.004 8.2a.5.5 0 0 0-.049.004.5.5 0 0 0-.39.265l-1.649 3.182-3.535.586a.5.5 0 0 0-.273.843l2.513 2.551-.535 3.541a.5.5 0 0 0 .717.524L16 20.117l3.203 1.606a.5.5 0 0 0 .717-.524l-.535-3.54 2.517-2.552a.5.5 0 0 0-.275-.843l-3.535-.586-1.649-3.182a.5.5 0 0 0-.447-.271zM16 11.813l1.318 2.546a.5.5 0 0 0 .364.264l2.83.47-2.014 2.04a.5.5 0 0 0-.14.428l.43 2.834-2.565-1.286a.5.5 0 0 0-.448 0l-2.564 1.284.43-2.836a.5.5 0 0 0-.137-.424L11.49 15.09l2.828-.467a.5.5 0 0 0 .364-.264L16 11.813z" color="#000" font-family="sans-serif" font-weight="400" overflow="visible"></path></svg>